<?xml version="1.0" encoding="utf-8"?>
<!-- Generator: Adobe Illustrator 26.2.1, SVG Export Plug-In . SVG Version: 6.00 Build 0)  -->
<svg version="1.1" id="Layer_1" xmlns="http://www.w3.org/2000/svg" xmlns:xlink="http://www.w3.org/1999/xlink" x="0px" y="0px"
	 viewBox="0 0 800 700" style="enable-background:new 0 0 800 700;" xml:space="preserve">
<style type="text/css">
	.st0{fill:none;stroke:#262626;stroke-width:0.5;stroke-linecap:square;stroke-linejoin:round;stroke-miterlimit:10;}
	.st1{fill:#BE1E2D;}
	.st2{font-family:'Helvetica';}
	.st3{font-size:20px;}
	.st4{fill:#262626;}
	.st5{font-size:16px;}
	.st6{font-family:'HelveticaNeue-Bold';}
	.st7{font-size:22px;}
	.st8{fill:none;stroke:#262626;stroke-width:0.5;stroke-linejoin:round;stroke-miterlimit:10;}
	.st9{fill:none;stroke:#262626;stroke-width:0.5;stroke-miterlimit:10;}
	.st10{fill:none;stroke:#000000;stroke-width:0.5;stroke-linecap:square;stroke-linejoin:round;stroke-miterlimit:10;}
	.st11{font-size:18px;}
	.st12{fill:none;stroke:#333333;stroke-width:0.5;stroke-linecap:square;stroke-linejoin:round;stroke-miterlimit:10;}
</style>
<g>
	<line class="st0" x1="104" y1="623" x2="700" y2="623"/>
	<line class="st0" x1="104" y1="52.5" x2="700" y2="52.5"/>
</g>
<g transform="translate(114.6429,629) rotate(-90)">
	<text transform="matrix(1 0 0 1 -24.9996 7.5)" class="st1 st2 st3">dS</text>
</g>
<g transform="translate(135.9286,629) rotate(-90)">
	<text transform="matrix(1 0 0 1 -40.9996 7.5)" class="st1 st2 st3">KSC</text>
</g>
<g transform="translate(157.2143,629) rotate(-90)">
	<text transform="matrix(1 0 0 1 -39.9996 7.5)" class="st1 st2 st3">KSB</text>
</g>
<g transform="translate(178.5,629) rotate(-90)">
	<text transform="matrix(1 0 0 1 -56.9996 7.5)" class="st4 st2 st3">KSmS</text>
</g>
<g transform="translate(199.7857,629) rotate(-90)">
	<text transform="matrix(1 0 0 1 -36.9996 7.5)" class="st4 st2 st3">abB</text>
</g>
<g transform="translate(221.0714,629) rotate(-90)">
	<text transform="matrix(1 0 0 1 -23.9996 7.5)" class="st1 st2 st3">aS</text>
</g>
<g transform="translate(242.3571,629) rotate(-90)">
	<text transform="matrix(1 0 0 1 -37.9996 7.5)" class="st1 st2 st3">nSB</text>
</g>
<g transform="translate(263.6429,629) rotate(-90)">
	<text transform="matrix(1 0 0 1 -39.9996 7.5)" class="st4 st2 st3">KBS</text>
</g>
<g transform="translate(284.9286,629) rotate(-90)">
	<text transform="matrix(1 0 0 1 -38.9996 7.5)" class="st4 st2 st3">KbB</text>
</g>
<g transform="translate(306.2143,629) rotate(-90)">
	<text transform="matrix(1 0 0 1 -25.9996 7.5)" class="st4 st2 st3">dB</text>
</g>
<g transform="translate(327.5,629) rotate(-90)">
	<text transform="matrix(1 0 0 1 -38.9996 7.5)" class="st4 st2 st3">nSC</text>
</g>
<g transform="translate(348.7857,629) rotate(-90)">
	<text transform="matrix(1 0 0 1 -26.9996 7.5)" class="st4 st2 st3">dC</text>
</g>
<g transform="translate(370.0714,629) rotate(-90)">
	<text transform="matrix(1 0 0 1 -37.9996 7.5)" class="st4 st2 st3">nBS</text>
</g>
<g transform="translate(391.3571,629) rotate(-90)">
	<text transform="matrix(1 0 0 1 -42.9996 7.5)" class="st4 st2 st3">KCC</text>
</g>
<g transform="translate(412.6429,629) rotate(-90)">
	<text transform="matrix(1 0 0 1 -55.9996 7.5)" class="st4 st2 st3">aSmC</text>
</g>
<g transform="translate(433.9286,629) rotate(-90)">
	<text transform="matrix(1 0 0 1 -39.9996 7.5)" class="st4 st2 st3">nBC</text>
</g>
<g transform="translate(455.2143,629) rotate(-90)">
	<text transform="matrix(1 0 0 1 -40.9996 7.5)" class="st4 st2 st3">KCS</text>
</g>
<g transform="translate(476.5,629) rotate(-90)">
	<text transform="matrix(1 0 0 1 -36.9996 7.5)" class="st4 st2 st3">nbB</text>
</g>
<g transform="translate(497.7857,629) rotate(-90)">
	<text transform="matrix(1 0 0 1 -39.9996 7.5)" class="st4 st2 st3">aCC</text>
</g>
<g transform="translate(519.0714,629) rotate(-90)">
	<text transform="matrix(1 0 0 1 -38.9996 7.5)" class="st4 st2 st3">nCS</text>
</g>
<g transform="translate(540.3571,629) rotate(-90)">
	<text transform="matrix(1 0 0 1 -57.9996 7.5)" class="st4 st2 st3">KSmC</text>
</g>
<g transform="translate(565,646) rotate(-90)">
	<text transform="matrix(1 0 0 1 3.906250e-04 0)" class="st4 st2 st3">r</text>
</g>
<g transform="translate(575,639) rotate(-90)">
	<text transform="matrix(1 0 0 1 3.906250e-04 0)" class="st4 st2 st5">b</text>
</g>
<g transform="translate(582.9286,629) rotate(-90)">
	<text transform="matrix(1 0 0 1 -54.9996 7.5)" class="st4 st2 st3">nSmS</text>
</g>
<g transform="translate(604.2143,629) rotate(-90)">
	<text transform="matrix(1 0 0 1 -39.9996 7.5)" class="st4 st2 st3">nCC</text>
</g>
<g transform="translate(625.5,629) rotate(-90)">
	<text transform="matrix(1 0 0 1 -55.9996 7.5)" class="st4 st2 st3">nSmC</text>
</g>
<g transform="translate(646.7857,629) rotate(-90)">
	<text transform="matrix(1 0 0 1 -41.9996 7.5)" class="st4 st2 st3">KBC</text>
</g>
<g transform="translate(668.0714,629) rotate(-90)">
	<text transform="matrix(1 0 0 1 -41.9996 7.5)" class="st4 st2 st3">KCB</text>
</g>
<g transform="translate(689.3571,629) rotate(-90)">
	<text transform="matrix(1 0 0 1 -39.9996 7.5)" class="st4 st2 st3">nCB</text>
</g>
<g>
	<line class="st0" x1="104" y1="52.5" x2="104" y2="623"/>
	<line class="st0" x1="700" y1="52.5" x2="700" y2="623"/>
</g>
<g transform="translate(98,62.6875)">
	<text transform="matrix(1 0 0 1 -25 7.5)" class="st1 st2 st3">dS</text>
</g>
<g transform="translate(98,83.0625)">
	<text transform="matrix(1 0 0 1 -41 7.5)" class="st1 st2 st3">KSC</text>
</g>
<g transform="translate(98,103.4375)">
	<text transform="matrix(1 0 0 1 -40 7.5)" class="st1 st2 st3">KSB</text>
</g>
<g transform="translate(98,123.8125)">
	<text transform="matrix(1 0 0 1 -57 7.5)" class="st4 st2 st3">KSmS</text>
</g>
<g transform="translate(98,144.1875)">
	<text transform="matrix(1 0 0 1 -37 7.5)" class="st4 st2 st3">abB</text>
</g>
<g transform="translate(98,164.5625)">
	<text transform="matrix(1 0 0 1 -24 7.5)" class="st1 st2 st3">aS</text>
</g>
<g transform="translate(98,184.9375)">
	<text transform="matrix(1 0 0 1 -38 7.5)" class="st1 st2 st3">nSB</text>
</g>
<g transform="translate(98,205.3125)">
	<text transform="matrix(1 0 0 1 -40 7.5)" class="st4 st2 st3">KBS</text>
</g>
<g transform="translate(98,225.6875)">
	<text transform="matrix(1 0 0 1 -39 7.5)" class="st4 st2 st3">KbB</text>
</g>
<g transform="translate(98,246.0625)">
	<text transform="matrix(1 0 0 1 -26 7.5)" class="st4 st2 st3">dB</text>
</g>
<g transform="translate(98,266.4375)">
	<text transform="matrix(1 0 0 1 -39 7.5)" class="st4 st2 st3">nSC</text>
</g>
<g transform="translate(98,286.8125)">
	<text transform="matrix(1 0 0 1 -27 7.5)" class="st4 st2 st3">dC</text>
</g>
<g transform="translate(98,307.1875)">
	<text transform="matrix(1 0 0 1 -38 7.5)" class="st4 st2 st3">nBS</text>
</g>
<g transform="translate(98,327.5625)">
	<text transform="matrix(1 0 0 1 -43 7.5)" class="st4 st2 st3">KCC</text>
</g>
<g transform="translate(98,347.9375)">
	<text transform="matrix(1 0 0 1 -56 7.5)" class="st4 st2 st3">aSmC</text>
</g>
<g transform="translate(98,368.3125)">
	<text transform="matrix(1 0 0 1 -40 7.5)" class="st4 st2 st3">nBC</text>
</g>
<g transform="translate(98,388.6875)">
	<text transform="matrix(1 0 0 1 -41 7.5)" class="st4 st2 st3">KCS</text>
</g>
<g transform="translate(98,409.0625)">
	<text transform="matrix(1 0 0 1 -37 7.5)" class="st4 st2 st3">nbB</text>
</g>
<g transform="translate(98,429.4375)">
	<text transform="matrix(1 0 0 1 -40 7.5)" class="st4 st2 st3">aCC</text>
</g>
<g transform="translate(98,449.8125)">
	<text transform="matrix(1 0 0 1 -39 7.5)" class="st4 st2 st3">nCS</text>
</g>
<g transform="translate(98,470.1875)">
	<text transform="matrix(1 0 0 1 -58 7.5)" class="st4 st2 st3">KSmC</text>
</g>
<g transform="translate(81,494)">
	<text transform="matrix(1 0 0 1 0 6.103515e-06)" class="st4 st2 st3">r</text>
</g>
<g transform="translate(88,504)">
	<text transform="matrix(1 0 0 1 0 6.103515e-06)" class="st4 st2 st5">b</text>
</g>
<g transform="translate(98,510.9375)">
	<text transform="matrix(1 0 0 1 -55 7.5)" class="st4 st2 st3">nSmS</text>
</g>
<g transform="translate(98,531.3125)">
	<text transform="matrix(1 0 0 1 -40 7.5)" class="st4 st2 st3">nCC</text>
</g>
<g transform="translate(98,551.6875)">
	<text transform="matrix(1 0 0 1 -56 7.5)" class="st4 st2 st3">nSmC</text>
</g>
<g transform="translate(98,572.0625)">
	<text transform="matrix(1 0 0 1 -42 7.5)" class="st4 st2 st3">KBC</text>
</g>
<g transform="translate(98,592.4375)">
	<text transform="matrix(1 0 0 1 -42 7.5)" class="st4 st2 st3">KCB</text>
</g>
<g transform="translate(98,612.8125)">
	<text transform="matrix(1 0 0 1 -40 7.5)" class="st4 st2 st3">nCB</text>
</g>
<g transform="translate(402.0004,49.75)">
	<text transform="matrix(1 0 0 1 -334.5 -5)" class="st4 st6 st7">Three-point correlation: parameter correlations vs cost function</text>
</g>
<g transform="matrix(0.5,0,0,0.5,104,52.5)">
	<g>
		<defs>
			<polygon id="SVGID_1_" points="0,0 0,40.8 0,81.5 0,122.3 0,163 0,203.8 0,244.5 0,285.2 0,326 0,366.8 0,407.5 0,448.2 0,489 
				0,529.8 0,570.5 0,611.2 0,652 0,692.8 0,733.5 0,774.2 0,815 0,855.8 0,896.5 0,937.2 0,978 0,1018.8 0,1059.5 0,1100.2 0,1141 
				42.6,1141 85.1,1141 127.7,1141 170.3,1141 212.9,1141 255.4,1141 298,1141 340.6,1141 383.1,1141 425.7,1141 468.3,1141 
				510.9,1141 553.4,1141 596,1141 638.6,1141 681.1,1141 723.7,1141 766.3,1141 808.9,1141 851.4,1141 894,1141 936.6,1141 
				979.1,1141 1021.7,1141 1064.3,1141 1106.9,1141 1149.4,1141 1192,1141 1192,1100.2 1192,1059.5 1192,1018.8 1192,978 
				1192,937.2 1192,896.5 1192,855.8 1192,815 1192,774.2 1192,733.5 1192,692.8 1192,652 1192,611.2 1192,570.5 1192,529.8 
				1192,489 1192,448.2 1192,407.5 1192,366.8 1192,326 1192,285.2 1192,244.5 1192,203.8 1192,163 1192,122.3 1192,81.5 1192,40.8 
				1192,0 1149.4,0 1106.9,0 1064.3,0 1021.7,0 979.1,0 936.6,0 894,0 851.4,0 808.9,0 766.3,0 723.7,0 681.1,0 638.6,0 596,0 
				553.4,0 510.9,0 468.3,0 425.7,0 383.1,0 340.6,0 298,0 255.4,0 212.9,0 170.3,0 127.7,0 85.1,0 42.6,0 			"/>
		</defs>
		<clipPath id="SVGID_00000047743005598873639200000007819078079193580707_">
			<use xlink:href="#SVGID_1_"  style="overflow:visible;"/>
		</clipPath>
		<g style="clip-path:url(#SVGID_00000047743005598873639200000007819078079193580707_);enable-background:new    ;">
			
				<image style="overflow:visible;" width="1192" height="1141" xlink:href="8E40FB25179EDA57.png"  transform="matrix(1 0 0 1 0 1.220703e-05)">
			</image>
		</g>
	</g>
</g>
<g>
	<line class="st8" x1="125.3" y1="52.5" x2="125.3" y2="623"/>
	<line class="st8" x1="146.6" y1="52.5" x2="146.6" y2="623"/>
	<line class="st8" x1="167.9" y1="52.5" x2="167.9" y2="623"/>
	<line class="st8" x1="189.1" y1="52.5" x2="189.1" y2="623"/>
	<line class="st8" x1="210.4" y1="52.5" x2="210.4" y2="623"/>
	<line class="st8" x1="231.7" y1="52.5" x2="231.7" y2="623"/>
	<line class="st8" x1="253" y1="52.5" x2="253" y2="623"/>
	<line class="st8" x1="274.3" y1="52.5" x2="274.3" y2="623"/>
	<line class="st8" x1="295.6" y1="52.5" x2="295.6" y2="623"/>
	<line class="st8" x1="316.9" y1="52.5" x2="316.9" y2="623"/>
	<line class="st8" x1="338.1" y1="52.5" x2="338.1" y2="623"/>
	<line class="st8" x1="359.4" y1="52.5" x2="359.4" y2="623"/>
	<line class="st8" x1="380.7" y1="52.5" x2="380.7" y2="623"/>
	<line class="st8" x1="402" y1="52.5" x2="402" y2="623"/>
	<line class="st8" x1="423.3" y1="52.5" x2="423.3" y2="623"/>
	<line class="st8" x1="444.6" y1="52.5" x2="444.6" y2="623"/>
	<line class="st8" x1="465.9" y1="52.5" x2="465.9" y2="623"/>
	<line class="st8" x1="487.1" y1="52.5" x2="487.1" y2="623"/>
	<line class="st8" x1="508.4" y1="52.5" x2="508.4" y2="623"/>
	<line class="st8" x1="529.7" y1="52.5" x2="529.7" y2="623"/>
	<line class="st8" x1="551" y1="52.5" x2="551" y2="623"/>
	<line class="st8" x1="572.3" y1="52.5" x2="572.3" y2="623"/>
	<line class="st8" x1="593.6" y1="52.5" x2="593.6" y2="623"/>
	<line class="st8" x1="614.9" y1="52.5" x2="614.9" y2="623"/>
	<line class="st8" x1="636.1" y1="52.5" x2="636.1" y2="623"/>
	<line class="st8" x1="657.4" y1="52.5" x2="657.4" y2="623"/>
	<line class="st8" x1="678.7" y1="52.5" x2="678.7" y2="623"/>
	<line class="st8" x1="104" y1="72.9" x2="700" y2="72.9"/>
	<line class="st8" x1="104" y1="93.3" x2="700" y2="93.3"/>
	<line class="st8" x1="104" y1="113.6" x2="700" y2="113.6"/>
	<line class="st8" x1="104" y1="134" x2="700" y2="134"/>
	<line class="st8" x1="104" y1="154.4" x2="700" y2="154.4"/>
	<line class="st8" x1="104" y1="174.8" x2="700" y2="174.8"/>
	<line class="st8" x1="104" y1="195.1" x2="700" y2="195.1"/>
	<line class="st8" x1="104" y1="215.5" x2="700" y2="215.5"/>
	<line class="st8" x1="104" y1="235.9" x2="700" y2="235.9"/>
	<line class="st8" x1="104" y1="256.2" x2="700" y2="256.2"/>
	<line class="st8" x1="104" y1="276.6" x2="700" y2="276.6"/>
	<line class="st8" x1="104" y1="297" x2="700" y2="297"/>
	<line class="st8" x1="104" y1="317.4" x2="700" y2="317.4"/>
	<line class="st8" x1="104" y1="337.8" x2="700" y2="337.8"/>
	<line class="st8" x1="104" y1="358.1" x2="700" y2="358.1"/>
	<line class="st8" x1="104" y1="378.5" x2="700" y2="378.5"/>
	<line class="st8" x1="104" y1="398.9" x2="700" y2="398.9"/>
	<line class="st8" x1="104" y1="419.2" x2="700" y2="419.2"/>
	<line class="st8" x1="104" y1="439.6" x2="700" y2="439.6"/>
	<line class="st8" x1="104" y1="460" x2="700" y2="460"/>
	<line class="st8" x1="104" y1="480.4" x2="700" y2="480.4"/>
	<line class="st8" x1="104" y1="500.8" x2="700" y2="500.8"/>
	<line class="st8" x1="104" y1="521.1" x2="700" y2="521.1"/>
	<line class="st8" x1="104" y1="541.5" x2="700" y2="541.5"/>
	<line class="st8" x1="104" y1="561.9" x2="700" y2="561.9"/>
	<line class="st8" x1="104" y1="582.2" x2="700" y2="582.2"/>
	<line class="st8" x1="104" y1="602.6" x2="700" y2="602.6"/>
	<path class="st9" d="M104,52.5h596V623H104V52.5z"/>
	<line class="st10" x1="708" y1="623" x2="724" y2="623"/>
	<line class="st10" x1="708" y1="52.5" x2="724" y2="52.5"/>
	<line class="st10" x1="708" y1="623" x2="708" y2="52.5"/>
	<line class="st10" x1="724" y1="623" x2="724" y2="52.5"/>
</g>
<g transform="matrix(0.5,0,0,0.5,708,52.5)">
	<g>
		<defs>
			<rect id="SVGID_00000142855129410576849020000001026666601482755751_" x="8" y="285.2" width="16" height="570.5"/>
		</defs>
		<clipPath id="SVGID_00000168108667671882398430000011716308963051938444_">
			<use xlink:href="#SVGID_00000142855129410576849020000001026666601482755751_"  style="overflow:visible;"/>
		</clipPath>
		<g style="clip-path:url(#SVGID_00000168108667671882398430000011716308963051938444_);enable-background:new    ;">
			
				<image style="overflow:visible;" width="32" height="1141" xlink:href="8E40FB25179EDA55.png"  transform="matrix(1 0 0 1 0 1.220703e-05)">
			</image>
		</g>
	</g>
</g>
<g>
	<line class="st0" x1="724" y1="623" x2="724" y2="52.5"/>
	<line class="st0" x1="724" y1="623" x2="718.3" y2="623"/>
	<line class="st0" x1="724" y1="566" x2="718.3" y2="566"/>
	<line class="st0" x1="724" y1="508.9" x2="718.3" y2="508.9"/>
	<line class="st0" x1="724" y1="451.9" x2="718.3" y2="451.9"/>
	<line class="st0" x1="724" y1="394.8" x2="718.3" y2="394.8"/>
	<line class="st0" x1="724" y1="337.8" x2="718.3" y2="337.8"/>
	<line class="st0" x1="724" y1="280.7" x2="718.3" y2="280.7"/>
	<line class="st0" x1="724" y1="223.6" x2="718.3" y2="223.6"/>
	<line class="st0" x1="724" y1="166.6" x2="718.3" y2="166.6"/>
	<line class="st0" x1="724" y1="109.6" x2="718.3" y2="109.6"/>
	<line class="st0" x1="724" y1="52.5" x2="718.3" y2="52.5"/>
</g>
<g transform="translate(729.6,623)">
	<text transform="matrix(1 0 0 1 0 7)" class="st4 st2 st11">-0.1</text>
</g>
<g transform="translate(729.6,565.95)">
	<text transform="matrix(1 0 0 1 0 7)" class="st4 st2 st11">-0.08</text>
</g>
<g transform="translate(729.6,508.9)">
	<text transform="matrix(1 0 0 1 0 7)" class="st4 st2 st11">-0.06</text>
</g>
<g transform="translate(729.6,451.85)">
	<text transform="matrix(1 0 0 1 0 7)" class="st4 st2 st11">-0.04</text>
</g>
<g transform="translate(729.6,394.8)">
	<text transform="matrix(1 0 0 1 0 7)" class="st4 st2 st11">-0.02</text>
</g>
<g transform="translate(729.6,337.75)">
	<text transform="matrix(1 0 0 1 0 7)" class="st4 st2 st11">0</text>
</g>
<g transform="translate(729.6,280.7)">
	<text transform="matrix(1 0 0 1 0 7)" class="st4 st2 st11">0.02</text>
</g>
<g transform="translate(729.6,223.65)">
	<text transform="matrix(1 0 0 1 0 7)" class="st4 st2 st11">0.04</text>
</g>
<g transform="translate(729.6,166.6)">
	<text transform="matrix(1 0 0 1 0 7)" class="st4 st2 st11">0.06</text>
</g>
<g transform="translate(729.6,109.55)">
	<text transform="matrix(1 0 0 1 0 7)" class="st4 st2 st11">0.08</text>
</g>
<g transform="translate(729.6,52.5)">
	<text transform="matrix(1 0 0 1 0 7)" class="st4 st2 st11">0.1</text>
</g>
<g>
	<line class="st10" x1="708" y1="52.5" x2="724" y2="52.5"/>
	<line class="st10" x1="708" y1="623" x2="724" y2="623"/>
	<line class="st10" x1="708" y1="623" x2="708" y2="52.5"/>
	<line class="st10" x1="724" y1="623" x2="724" y2="52.5"/>
	<line class="st12" x1="708" y1="623" x2="708" y2="623"/>
	<line class="st12" x1="708" y1="52.5" x2="708" y2="52.5"/>
	<line class="st12" x1="724" y1="623" x2="724" y2="623"/>
	<line class="st12" x1="724" y1="52.5" x2="724" y2="52.5"/>
</g>
</svg>
